<svg width="140" height="36" viewBox="0 0 140 36" fill="none" xmlns="http://www.w3.org/2000/svg">
  <g fill="currentColor">
    <path d="M10 27.5c6.2-2.7 10.6-6.6 13.2-11.8l4.8 1.9c-3.4 6.7-8.8 11.6-16.2 14.7L10 27.5Z"/>
    <path d="M14 6c8.7 2.4 14.6 7.4 17.7 15l-4.9 1.8C24 16.6 19 12.8 12 11.1L14 6Z"/>
    <path d="M37 10.5h5.1c3.4 0 5.5 1.4 5.5 4.2 0 1.8-1 3-2.7 3.6 2.2.5 3.4 1.9 3.4 4 0 3-2.3 4.7-6.2 4.7H37V10.5Zm5 6c1.5 0 2.4-.6 2.4-1.7 0-1-.8-1.6-2.2-1.6h-1.8v3.3H42Zm.4 7.2c1.8 0 2.8-.7 2.8-2 0-1.2-1-2-2.8-2h-2.2v4h2.2Z"/>
    <path d="M50.8 18.8c0-5 3.7-8.5 8.9-8.5 2.8 0 5.2 1.1 6.9 3l-2.5 2.3a6.1 6.1 0 0 0-4.4-1.9c-3.1 0-5.2 2.1-5.2 5.1s2.1 5.1 5.2 5.1c1.8 0 3.3-.7 4.6-2l2.4 2.4c-1.8 1.9-4.2 3-7.2 3-5.2 0-8.7-3.5-8.7-8.5Z"/>
    <path d="M68.8 10.5h4v6.7h7.3v-6.7h4V27h-4v-6.5h-7.3V27h-4V10.5Z"/>
    <path d="M87.2 18.8c0-5 3.7-8.5 8.8-8.5 5.1 0 8.8 3.5 8.8 8.5 0 5-3.7 8.5-8.8 8.5-5.1 0-8.8-3.5-8.8-8.5Zm13.6 0c0-2.9-1.9-5-4.8-5s-4.8 2.1-4.8 5 1.9 5 4.8 5 4.8-2.1 4.8-5Z"/>
    <path d="M107.7 10.5h4v13.2h7.9V27h-11.9V10.5Z"/>
    <path d="M121.7 18.8c0-5 3.7-8.5 8.8-8.5 5.1 0 8.8 3.5 8.8 8.5 0 5-3.7 8.5-8.8 8.5-5.1 0-8.8-3.5-8.8-8.5Zm13.6 0c0-2.9-1.9-5-4.8-5s-4.8 2.1-4.8 5 1.9 5 4.8 5 4.8-2.1 4.8-5Z"/>
  </g>
</svg>
